Coordinates
version=1
nRows=16
nColumns=40
inDegrees=yes

Units are S.I. units (second, meters, Newtons, ...)
If the header above contains a line with 'inDegrees', this indicates whether rotational values are in degrees (yes) or radians (no).

endheader
time	pelvis_tilt	pelvis_list	pelvis_rotation	pelvis_tx	pelvis_ty	pelvis_tz	hip_flexion_r	hip_adduction_r	hip_rotation_r	knee_angle_r	knee_angle_r_beta	ankle_angle_r	subtalar_angle_r	mtp_angle_r	hip_flexion_l	hip_adduction_l	hip_rotation_l	knee_angle_l	knee_angle_l_beta	ankle_angle_l	subtalar_angle_l	mtp_angle_l	lumbar_extension	lumbar_bending	lumbar_rotation	arm_flex_r	arm_add_r	arm_rot_r	elbow_flex_r	pro_sup_r	wrist_flex_r	wrist_dev_r	arm_flex_l	arm_add_l	arm_rot_l	elbow_flex_l	pro_sup_l	wrist_flex_l	wrist_dev_l
      1.77000000	    -13.80495384	     -1.78088988	     -2.59662956	      0.16550597	      0.49260296	     -1.20346714	     96.06085027	    -42.14036387	     11.16467304	    114.80314490	      2.00369287	     32.05224503	      8.65578452	      0.00000000	    103.05721470	    -48.27283729	     20.35218948	    113.20290392	      1.97576340	     30.00202238	     21.63367004	      0.00000000	    -23.50167125	      1.00047397	     -0.35656185	     44.99745059	    -15.00002779	     44.99745059	     75.00017591	     45.00000026	      0.00000000	      0.00000000	     44.99745059	    -15.00002779	     44.99745059	     75.00017591	     45.00000026	      0.00000000	      0.00000000
      1.77500000	    -13.61094653	     -1.78661883	     -2.57904118	      0.16564221	      0.49137717	     -1.20361053	     96.07777555	    -42.20987807	     11.34113220	    115.00636340	      2.00723970	     32.21812777	      8.56118141	      0.00000000	    103.07654578	    -48.26523601	     20.55510190	    113.42867706	      1.97970388	     30.22496127	     21.61992680	      0.00000000	    -23.80757181	      0.98023446	     -0.39470653	     44.99752096	    -15.00002662	     44.99752096	     75.00017590	     45.00000026	      0.00000000	      0.00000000	     44.99752096	    -15.00002662	     44.99752096	     75.00017590	     45.00000026	      0.00000000	      0.00000000
      1.78000000	    -13.58137952	     -1.80108714	     -2.59612873	      0.16578229	      0.48940292	     -1.20371518	     96.38985516	    -42.25029328	     11.65764185	    115.27378795	      2.01190714	     32.25119284	      8.94564604	      0.00000000	    103.49508221	    -48.28602891	     20.95511511	    113.72354512	      1.98485030	     30.15490032	     21.79718821	      0.00000000	    -23.89222518	      1.06044672	     -0.29674095	     44.99758763	    -15.00002552	     44.99758763	     75.00017590	     45.00000026	      0.00000000	      0.00000000	     44.99758763	    -15.00002552	     44.99758763	     75.00017590	     45.00000026	      0.00000000	      0.00000000
      1.78500000	    -13.39665523	     -1.82968068	     -2.55366822	      0.16593349	      0.48813384	     -1.20391015	     96.40899914	    -42.35450580	     11.80712261	    115.49144340	      2.01570595	     32.39658351	      8.82327598	      0.00000000	    103.53139279	    -48.23421610	     21.19223171	    113.93221166	      1.98849222	     30.40177858	     21.78624520	      0.00000000	    -24.18599382	      1.08175166	     -0.36733237	     44.99765200	    -15.00002447	     44.99765200	     75.00017590	     45.00000026	      0.00000000	      0.00000000	     44.99765200	    -15.00002447	     44.99765200	     75.00017590	     45.00000026	      0.00000000	      0.00000000
      1.79000000	    -13.25051460	     -1.85475007	     -2.59174142	      0.16609664	      0.48657293	     -1.20395595	     96.52734729	    -42.36886117	     12.04368135	    115.73284439	      2.01991919	     32.42786123	      9.06956882	      0.00000000	    103.75312019	    -48.28935068	     21.56285133	    114.19027139	      1.99299621	     30.43385283	     21.98618625	      0.00000000	    -24.42032882	      1.07235775	     -0.35180550	     44.99771237	    -15.00002351	     44.99771237	     75.00017589	     45.00000026	      0.00000000	      0.00000000	     44.99771237	    -15.00002351	     44.99771237	     75.00017589	     45.00000026	      0.00000000	      0.00000000
      1.79500000	    -13.13186638	     -1.86263747	     -2.59661483	      0.16625152	      0.48501476	     -1.20407500	     96.67869150	    -42.41732985	     12.28369503	    115.96425486	      2.02395806	     32.57843438	      9.17976328	      0.00000000	    103.93756256	    -48.29242403	     21.84584522	    114.44338355	      1.99741385	     30.55888874	     22.03689122	      0.00000000	    -24.60776805	      1.10032492	     -0.29817330	     44.99777208	    -15.00002257	     44.99777208	     75.00017589	     45.00000026	      0.00000000	      0.00000000	     44.99777208	    -15.00002257	     44.99777208	     75.00017589	     45.00000026	      0.00000000	      0.00000000
      1.80000000	    -12.99628194	     -1.87277074	     -2.58943929	      0.16640270	      0.48345895	     -1.20422062	     96.81721586	    -42.47491616	     12.53048921	    116.19964271	      2.02806635	     32.68943362	      9.27360641	      0.00000000	    104.08851282	    -48.26308129	     22.14348380	    114.69594916	      2.00182195	     30.70109197	     22.11214121	      0.00000000	    -24.81539525	      1.12799322	     -0.28280763	     44.99782872	    -15.00002169	     44.99782872	     75.00017589	     45.00000026	      0.00000000	      0.00000000	     44.99782872	    -15.00002169	     44.99782872	     75.00017589	     45.00000026	      0.00000000	      0.00000000
      1.80500000	    -12.85834662	     -1.87649867	     -2.62099834	      0.16654872	      0.48191344	     -1.20427399	     96.95909264	    -42.47887195	     12.78796537	    116.43764247	      2.03222023	     32.77520488	      9.38447427	      0.00000000	    104.25862343	    -48.29211202	     22.44600631	    114.94503175	      2.00616926	     30.79541843	     22.17778435	      0.00000000	    -25.02792551	      1.12473035	     -0.23438167	     44.99788247	    -15.00002087	     44.99788247	     75.00017589	     45.00000026	      0.00000000	      0.00000000	     44.99788247	    -15.00002087	     44.99788247	     75.00017589	     45.00000026	      0.00000000	      0.00000000
      1.81000000	    -12.70296083	     -1.88284708	     -2.61739145	      0.16671266	      0.48043694	     -1.20442408	     97.06717132	    -42.53321677	     13.03026091	    116.66313868	      2.03615589	     32.89163398	      9.45820872	      0.00000000	    104.37032192	    -48.27196609	     22.72358245	    115.19386412	      2.01051221	     30.95385923	     22.24467489	      0.00000000	    -25.25926507	      1.13877507	     -0.21817916	     44.99793487	    -15.00002008	     44.99793487	     75.00017588	     45.00000026	      0.00000000	      0.00000000	     44.99793487	    -15.00002008	     44.99793487	     75.00017588	     45.00000026	      0.00000000	      0.00000000
      1.81500000	    -12.56419930	     -1.90149692	     -2.63492839	      0.16687387	      0.47889567	     -1.20454586	     97.18854641	    -42.55955330	     13.26239951	    116.89338029	      2.04017436	     32.99076464	      9.55953667	      0.00000000	    104.54792331	    -48.27128027	     23.04554962	    115.44562275	      2.01490622	     31.06561052	     22.30469956	      0.00000000	    -25.46514640	      1.16187495	     -0.18806569	     44.99798564	    -15.00001933	     44.99798564	     75.00017588	     45.00000026	      0.00000000	      0.00000000	     44.99798564	    -15.00001933	     44.99798564	     75.00017588	     45.00000026	      0.00000000	      0.00000000
      1.82000000	    -12.39471681	     -1.92268925	     -2.65369348	      0.16705933	      0.47737368	     -1.20463387	     97.28587343	    -42.59212697	     13.49789412	    117.13584259	      2.04440613	     33.06271646	      9.68237742	      0.00000000	    104.69239118	    -48.26905846	     23.39288329	    115.69647135	      2.01928436	     31.13978476	     22.35928644	      0.00000000	    -25.69601613	      1.18931605	     -0.13249440	     44.99803541	    -15.00001860	     44.99803541	     75.00017588	     45.00000026	      0.00000000	      0.00000000	     44.99803541	    -15.00001860	     44.99803541	     75.00017588	     45.00000026	      0.00000000	      0.00000000
      1.82500000	    -12.23721572	     -1.90172737	     -2.70839951	      0.16723795	      0.47583761	     -1.20467614	     97.43304846	    -42.55912184	     13.82332007	    117.37145888	      2.04851841	     33.15984829	      9.90515942	      0.00000000	    104.82181121	    -48.33437549	     23.66561625	    115.95583575	      2.02381112	     31.19634237	     22.48307453	      0.00000000	    -25.91436728	      1.21005876	     -0.00096994	     44.99808462	    -15.00001788	     44.99808462	     75.00017588	     45.00000026	      0.00000000	      0.00000000	     44.99808462	    -15.00001788	     44.99808462	     75.00017588	     45.00000026	      0.00000000	      0.00000000
      1.83000000	    -12.05135737	     -1.90039811	     -2.71969614	      0.16744130	      0.47448500	     -1.20476849	     97.49851280	    -42.59443746	     14.04580986	    117.58090662	      2.05217396	     33.29086037	      9.89877517	      0.00000000	    104.85918703	    -48.33974629	     23.90936133	    116.18587421	      2.02782605	     31.42448990	     22.52126418	      0.00000000	    -26.17640556	      1.16884721	      0.02262772	     44.99813297	    -15.00001719	     44.99813297	     75.00017588	     45.00000026	      0.00000000	      0.00000000	     44.99813297	    -15.00001719	     44.99813297	     75.00017588	     45.00000026	      0.00000000	      0.00000000
      1.83500000	    -11.86407656	     -1.91127197	     -2.76554779	      0.16756265	      0.47299073	     -1.20479059	     97.57846640	    -42.54801973	     14.31115876	    117.84036022	      2.05670228	     33.41028316	      9.94679560	      0.00000000	    104.94857597	    -48.34590524	     24.24779829	    116.41629217	      2.03184760	     31.58083215	     22.58680205	      0.00000000	    -26.41338327	      1.16456666	      0.04957208	     44.99818026	    -15.00001653	     44.99818026	     75.00017587	     45.00000026	      0.00000000	      0.00000000	     44.99818026	    -15.00001653	     44.99818026	     75.00017587	     45.00000026	      0.00000000	      0.00000000
      1.84000000	    -11.65998096	     -1.92423546	     -2.78987026	      0.16771776	      0.47170266	     -1.20498475	     97.59117155	    -42.55496867	     14.50981040	    118.02023565	      2.05984170	     33.53385828	      9.85403753	      0.00000000	    104.99439248	    -48.35249232	     24.50179303	    116.67906518	      2.03643386	     31.79139810	     22.53735119	      0.00000000	    -26.70711270	      1.13910662	      0.04565763	     44.99822654	    -15.00001588	     44.99822654	     75.00017587	     45.00000026	      0.00000000	      0.00000000	     44.99822654	    -15.00001588	     44.99822654	     75.00017587	     45.00000026	      0.00000000	      0.00000000
      1.84500000	    -11.50689627	     -1.94236526	     -2.80546355	      0.16798435	      0.47009641	     -1.20514430	     97.71337625	    -42.59353338	     14.80030581	    118.24742759	      2.06380694	     33.61021099	     10.19681373	      0.00000000	    105.17960989	    -48.35416516	     24.86456939	    116.94915876	      2.04114788	     31.82484597	     22.78126415	      0.00000000	    -26.88137235	      1.20020094	      0.11664297	     44.99827060	    -15.00001528	     44.99827060	     75.00017587	     45.00000026	      0.00000000	      0.00000000	     44.99827060	    -15.00001528	     44.99827060	     75.00017587	     45.00000026	      0.00000000	      0.00000000
